<?xml version="1.0" encoding="iso-8859-1"?>
<!-- Uploaded to: SVG Repo, www.svgrepo.com, Generator: SVG Repo Mixer Tools -->
<svg height="800px" width="800px" version="1.1" id="Layer_1" xmlns="http://www.w3.org/2000/svg" xmlns:xlink="http://www.w3.org/1999/xlink" 
	 viewBox="0 0 512 512" xml:space="preserve">
<path style="fill:#72CCC5;" d="M401.384,119.194c0-23.615,42.76-85.52,42.76-85.52s42.76,61.905,42.76,85.52
	s-19.145,42.76-42.76,42.76C420.529,161.954,401.384,142.809,401.384,119.194z"/>
<path style="fill:#11BBA3;" d="M461.248,144.85c-23.615,0-42.76-19.145-42.76-42.76c0-14.563,16.258-43.682,28.725-63.87
	c-1.917-2.879-3.069-4.546-3.069-4.546s-42.76,61.905-42.76,85.52s19.145,42.76,42.76,42.76c16.206,0,30.305-9.017,37.558-22.306
	C475.626,142.963,468.659,144.85,461.248,144.85z"/>
<circle style="fill:#8FDED7;" cx="452.702" cy="102.09" r="17.104"/>
<path style="fill:#66BF00;" d="M244.729,409.963c0-14.17,25.656-51.312,25.656-51.312s25.656,37.143,25.656,51.312
	c0,14.17-11.486,25.656-25.656,25.656C256.216,435.619,244.729,424.132,244.729,409.963z"/>
<path style="fill:#58AB23;" d="M283.213,428.136c-14.17,0-25.656-11.486-25.656-25.656c0-8.6,9.448-25.655,16.878-37.74
	c-2.428-3.739-4.05-6.089-4.05-6.089s-25.656,37.143-25.656,51.312c0,14.17,11.486,25.656,25.656,25.656
	c7.418,0,14.097-3.151,18.78-8.184C287.254,427.889,285.263,428.136,283.213,428.136z"/>
<path style="fill:#66BF00;" d="M318.369,430.278c12.558-6.564,57.359-1.034,57.359-1.034s-21.032,39.943-33.589,46.508
	c-12.558,6.564-28.058,1.705-34.623-10.851C300.953,452.343,305.812,436.843,318.369,430.278z"/>
<path style="fill:#58AB23;" d="M323.552,457.418c-5.227-9.999-3.205-21.861,4.174-29.595c-3.853,0.501-7.12,1.286-9.358,2.456
	c-12.558,6.564-17.416,22.065-10.851,34.622c6.564,12.558,22.065,17.416,34.623,10.851c1.781-0.931,3.736-2.551,5.775-4.616
	C338.11,471.753,328.397,466.686,323.552,457.418z"/>
<circle style="fill:#72CCC5;" cx="273.098" cy="221.818" r="111.176"/>
<path style="fill:#11BBA3;" d="M298.76,307.338c-61.401,0-111.176-49.776-111.176-111.176c0-24.152,7.705-46.502,20.786-64.735
	c-28.12,20.174-46.442,53.141-46.442,90.391c0,61.401,49.775,111.176,111.176,111.176c37.249,0,70.216-18.322,90.391-46.442
	C345.263,299.633,322.912,307.338,298.76,307.338z"/>
<g>
	<path style="fill:#66BF00;" d="M247.448,161.954L256,187.61l25.656,17.104l17.104,34.208l8.552-34.208v-25.656l25.656-25.656
		l14.354-14.354c-19.681-17.66-45.692-28.407-74.218-28.407c-24.078,0-46.367,7.657-64.569,20.665l13.257,22.095L247.448,161.954z"
		/>
	<path style="fill:#66BF00;" d="M381.795,198.37l-31.723,6.345l-8.552,42.76l17.104,25.656l7.355,9.806
		c11.564-17.538,18.301-38.54,18.301-61.118C384.28,213.773,383.418,205.93,381.795,198.37z"/>
	<path style="fill:#66BF00;" d="M273.104,264.578l-25.656-25.656l-42.76-8.552l-25.656-34.208l-15.398,6.16
		c-1.119,6.331-1.706,12.845-1.706,19.496c0,44.108,25.686,82.216,62.916,100.183l39.708-31.766L273.104,264.578z"/>
</g>
<path style="fill:#58AB23;" d="M188.266,208.474l-9.234-12.312l-15.398,6.16c-1.119,6.331-1.706,12.845-1.706,19.496
	c0,44.108,25.686,82.216,62.916,100.183l29.742-23.794C218.754,282.675,192.713,248.83,188.266,208.474z"/>
<path d="M444.144,169.971c27.998,0,50.778-22.779,50.778-50.778c0-25.383-39.659-83.531-44.181-90.077
	c-3.133-4.536-10.06-4.536-13.194,0c-4.522,6.547-44.181,64.694-44.181,90.077C393.367,147.192,416.146,169.971,444.144,169.971z
	 M444.145,48.078c15.521,23.817,34.742,57.722,34.742,71.115c0,19.158-15.585,34.743-34.743,34.743s-34.743-15.585-34.743-34.743
	C409.402,105.811,428.624,71.902,444.145,48.078z"/>
<path d="M376.711,421.289c-7.896-0.974-47.994-5.465-62.057,1.886c-16.25,8.494-22.672,28.478-14.546,44.824l-21.706,18.605v-43.939
	c14.708-3.608,25.656-16.897,25.656-32.702c0-15.866-22.556-49.324-27.077-55.869c-3.133-4.536-10.06-4.536-13.194,0
	c-4.521,6.546-27.077,40.003-27.077,55.869c0,15.805,10.948,29.094,25.656,32.702v61.37c0,6.702,8.142,10.454,13.235,6.087
	l34.843-29.866c10.266,7.45,24.17,8.475,35.408,2.601c14.062-7.348,33.263-42.837,36.97-49.876
	C385.394,428.096,382.174,421.962,376.711,421.289z M252.746,409.963c0-5.841,8.287-21.879,17.64-36.74
	c9.353,14.855,17.637,30.89,17.637,36.74c0,6.837-3.919,12.765-9.621,15.691v-15.691c0-4.429-3.589-8.018-8.018-8.018
	c-4.429,0-8.018,3.589-8.018,8.018v15.691C256.665,422.728,252.746,416.8,252.746,409.963z M338.425,468.647
	c-4.873,2.548-10.404,2.583-15.106,0.575l12.147-10.412c3.362-2.881,3.751-7.944,0.869-11.305c-2.88-3.36-7.942-3.751-11.305-0.869
	l-11.965,10.256c-1.713-7.607,1.786-15.727,9.017-19.507c3.064-1.601,10.637-2.286,19.938-2.286c6.413,0,13.649,0.325,20.79,0.899
	C353.975,451.171,343.602,465.941,338.425,468.647z"/>
<path d="M144.823,298.252c4.429,0,8.018-3.589,8.018-8.018v-25.656c0-4.429-3.589-8.018-8.018-8.018h-25.656
	c-4.429,0-8.018,3.589-8.018,8.018c0,4.429,3.589,8.018,8.018,8.018h17.639v9.621h-17.639c-4.429,0-8.018,3.589-8.018,8.018v25.656
	c0,4.429,3.589,8.018,8.018,8.018h25.656c4.429,0,8.018-3.589,8.018-8.018s-3.589-8.018-8.018-8.018h-17.639v-9.621H144.823z"/>
<path d="M101.529,264.578v-68.416c0-13.852-11.269-25.122-25.122-25.122H42.199c-13.852,0-25.122,11.269-25.122,25.122v68.416
	c0,13.852,11.269,25.122,25.122,25.122h34.208C90.259,289.7,101.529,278.43,101.529,264.578z M33.113,264.578v-68.416
	c0-5.01,4.076-9.087,9.087-9.087h34.208c5.01,0,9.087,4.076,9.087,9.087v68.416c0,5.01-4.076,9.087-9.087,9.087H42.199
	C37.19,273.665,33.113,269.589,33.113,264.578z"/>
<path d="M273.104,102.624c-65.723,0-119.194,53.47-119.194,119.194s53.47,119.194,119.194,119.194s119.194-53.47,119.194-119.194
	S338.828,102.624,273.104,102.624z M335.388,139.642l-33.746,33.746c-1.503,1.504-2.348,3.543-2.348,5.67v24.669l-3.055,12.224
	l-7.412-14.823c-0.624-1.248-1.563-2.311-2.724-3.085l-23.366-15.578l-7.683-23.048c-0.799-2.393-2.677-4.272-5.07-5.07
	l-22.842-7.613l-7.766-12.945c15.659-9.593,34.058-15.131,53.729-15.131C296.484,118.659,318.069,126.482,335.388,139.642z
	 M169.945,221.818c0-4.663,0.316-9.253,0.919-13.754l5.439-2.175l21.97,29.292c1.183,1.579,2.908,2.664,4.842,3.051l40.379,8.076
	l20.435,20.435l-6.237,18.71l-33.778,27.022C191.793,294.977,169.945,260.901,169.945,221.818z M273.104,324.977
	c-11.373,0-22.32-1.855-32.56-5.269l29.016-23.212c1.207-0.965,2.109-2.259,2.598-3.724l8.552-25.656
	c0.96-2.881,0.211-6.058-1.937-8.206l-25.656-25.656c-1.12-1.119-2.545-1.883-4.097-2.193l-39.756-7.951l-23.817-31.758
	c-2.175-2.901-6.027-3.979-9.391-2.634l-0.763,0.306c6.042-17.973,16.911-33.746,31.055-45.781l8.571,14.285
	c0.986,1.641,2.524,2.876,4.34,3.482l21.853,7.284l7.284,21.853c0.563,1.691,1.675,3.146,3.159,4.135l23.885,15.924l16.152,32.304
	c1.509,3.018,4.851,4.796,8.196,4.364c3.237-0.418,5.961-2.838,6.753-6.006l8.552-34.208c0.158-0.637,0.239-1.289,0.239-1.945
	v-22.336l32.062-32.06c11.23,11.663,19.743,25.955,24.522,41.85l-23.413,4.683c-3.174,0.635-5.655,3.116-6.29,6.29l-8.552,42.76
	c-0.417,2.085,0.012,4.25,1.191,6.02l17.104,25.656c0.082,0.123,0.168,0.245,0.257,0.363l3.846,5.128
	C337.248,308.475,307.069,324.977,273.104,324.977z M365.12,268.42l-15.087-22.63l6.852-34.263l18.426-3.686
	c0.622,4.572,0.95,9.236,0.95,13.976C376.263,238.578,372.242,254.414,365.12,268.42z"/>
<path d="M482.91,179.696c-4.371,0.703-7.345,4.818-6.643,9.19c1.739,10.808,2.62,21.889,2.62,32.933
	c0,68.38-33.85,132.126-90.55,170.52c-3.334,2.258-4.481,6.801-2.603,10.366c2.195,4.168,7.684,5.56,11.593,2.91
	c61.111-41.381,97.595-110.089,97.595-183.797c0-11.895-0.95-23.831-2.823-35.479C491.395,181.967,487.281,178.999,482.91,179.696z"
	/>
<path d="M70.689,152.33c4.079,1.574,8.794-0.517,10.367-4.592C111.464,68.962,188.643,16.035,273.104,16.035
	c41.319,0,81.167,12.194,115.236,35.265c3.665,2.484,8.65,1.524,11.134-2.143c2.482-3.667,1.523-8.651-2.143-11.134
	C360.598,13.149,317.641,0,273.104,0c-45.681,0-89.553,13.777-126.872,39.843c-36.468,25.472-64.179,60.785-80.136,102.12
	C64.503,146.093,66.557,150.735,70.689,152.33z"/>
<path d="M223.715,421.638c-59.153-14.571-108.525-54.399-135.458-109.277c-1.95-3.975-6.749-5.62-10.73-3.665
	c-3.975,1.95-5.615,6.754-3.665,10.73C102.889,378.57,156.11,421.5,219.879,437.207c4.307,1.06,8.754-1.7,9.736-6.017
	C230.572,426.988,227.898,422.668,223.715,421.638z"/>
</svg>