<?xml version="1.0" encoding="utf-8"?>

<!DOCTYPE svg PUBLIC "-//W3C//DTD SVG 1.1//EN" "http://www.w3.org/Graphics/SVG/1.1/DTD/svg11.dtd">
<!-- Uploaded to: SVG Repo, www.svgrepo.com, Generator: SVG Repo Mixer Tools -->
<svg height="800px" width="800px" version="1.1" id="_x32_" xmlns="http://www.w3.org/2000/svg" xmlns:xlink="http://www.w3.org/1999/xlink" 
	 viewBox="0 0 512 512"  xml:space="preserve">
<style type="text/css">
	.st0{fill:#000000;}
</style>
<g>
	<path class="st0" d="M90.333,224.981c-27.364,0-49.539,22.184-49.539,49.524c0,27.363,22.175,49.538,49.539,49.538
		c27.332,0,49.5-22.175,49.5-49.538C139.834,247.165,117.665,224.981,90.333,224.981z M90.333,298.201
		c-13.114,0-23.712-10.606-23.712-23.696c0-13.076,10.598-23.681,23.712-23.681c13.076,0,23.673,10.606,23.673,23.681
		C114.006,287.596,103.409,298.201,90.333,298.201z"/>
	<path class="st0" d="M418.302,274.505c0-27.34-22.16-49.524-49.5-49.524c-27.371,0-49.547,22.184-49.547,49.524
		c0,27.363,22.176,49.538,49.547,49.538C396.142,324.043,418.302,301.868,418.302,274.505z M345.09,274.505
		c0-13.076,10.613-23.681,23.712-23.681c13.068,0,23.673,10.606,23.673,23.681c0,13.09-10.606,23.696-23.673,23.696
		C355.703,298.201,345.09,287.596,345.09,274.505z"/>
	<path class="st0" d="M90.333,264.316c-5.658,0-10.228,4.562-10.228,10.189c0,5.642,4.57,10.212,10.228,10.212
		c5.619,0,10.188-4.57,10.188-10.212C100.521,268.878,95.952,264.316,90.333,264.316z"/>
	<path class="st0" d="M378.991,274.505c0-5.628-4.57-10.189-10.189-10.189c-5.643,0-10.204,4.562-10.204,10.189
		c0,5.642,4.554,10.212,10.204,10.212C374.421,284.717,378.991,280.147,378.991,274.505z"/>
	<path class="st0" d="M475.899,250.283h-4.492c-4.5-23.001-18.332-42.654-37.575-54.602c-20.154-30.905-48.366-56.084-81.618-72.587
		l17.892-18.147c1.575-1.59,1.552-4.153-0.046-5.735c-1.59-1.574-4.153-1.544-5.712,0.046l-19.899,20.177
		c-25.664-11.439-54.1-17.799-84.026-17.799c-66.721,0-116.638,31.616-154.452,80.66c-5.982-1.288-12.196-1.991-18.564-1.991
		C39.126,180.305,0,219.424,0,267.721c0,2.94,0.147,5.858,0.432,8.73h30.003c-0.015-0.649-0.039-1.282-0.039-1.945
		c0-33.083,26.823-59.929,59.937-59.929c33.09,0,59.905,26.846,59.905,59.929c0,0.663-0.024,1.296-0.031,1.945h24.167h114.924
		h19.598c-0.008-0.649-0.039-1.282-0.039-1.945c0-33.083,26.83-59.929,59.944-59.929c33.082,0,59.936,26.846,59.936,59.929
		c0,0.663-0.039,1.296-0.07,1.945h36.139h7.664c0.41-3.32,0.641-6.7,0.641-10.128h2.786c5.565,0,10.528,2.238,14.187,5.874
		c3.644,3.651,5.866,8.622,5.874,14.187v66.473c-0.008,5.566-2.23,10.537-5.874,14.188c-3.659,3.635-8.622,5.873-14.187,5.873
		H281.418c-3.596-14.341-16.464-24.993-31.916-24.993H216.48v11.786h-20.756v11.794h20.756v18.864h-20.756v11.787h20.756v11.794
		h33.021c15.452,0,28.32-10.651,31.916-24.993h194.482c19.945,0,36.093-16.163,36.101-36.101v-66.473
		C511.992,266.446,495.844,250.283,475.899,250.283z M258.03,178.653h-0.008H155.757c-0.926,0-1.744-0.571-2.068-1.435
		c-0.34-0.857-0.1-1.822,0.586-2.455c0,0,8.306-8.568,15.268-13.871c26.776-20.516,50.211-31.809,84.945-31.809
		c1.181,0,2.37,0.031,3.543,0.054V178.653z M378.196,177.334c-0.332,0.857-1.174,1.428-2.084,1.428h-83.394v-47.594
		c25.688,4.106,49.701,14.542,70.071,30.204c6.792,5.241,14.82,13.5,14.82,13.5C378.296,175.505,378.52,176.469,378.196,177.334z"/>
</g>
</svg>