<?xml version="1.0" encoding="utf-8"?>
<!-- Uploaded to: SVG Repo, www.svgrepo.com, Generator: SVG Repo Mixer Tools -->
<svg fill="#000000" version="1.1" id="Layer_1" xmlns="http://www.w3.org/2000/svg" xmlns:xlink="http://www.w3.org/1999/xlink" 
	 width="800px" height="800px" viewBox="0 0 260 260" enable-background="new 0 0 260 260" xml:space="preserve">
<path d="M220.23,72.76c0.03,0.46,0.04,0.92,0.04,1.39C220.27,86.89,209.75,97,197,97h-50c0.63-1.09,1.48-1.89,2.33-2.86
	C153.36,89.51,158.16,87,164,87h33c7.23,0,13.27-5.62,13.27-12.85c0-1.37-0.19-2.66-0.57-3.85c-0.47-1.46-0.24-3.06,0.62-4.33
	c0.86-1.27,2.26-2.08,3.8-2.18c7.4-0.51,13.2-6.72,13.2-14.15c0-7.83-6.36-14.19-14.18-14.19c-0.82,0-1.64,0.06-2.44,0.19
	c-2.52,0.4-4.95-1.17-5.61-3.65C201.94,20.22,191.23,12,179.03,12c-14.87,0-26.97,12.1-26.97,26.97c0,2.76-2.24,5-5,5h-17.72
	c-9.59,0-17.38,7.8-17.38,17.39c0,2.85,0.66,5.55,1.97,8.01c1.02,1.92,0.68,4.28-0.84,5.84c-2.79,2.86-4.33,6.65-4.33,10.66
	c0,4.39,2.01,8.26,5.24,11.13h-12.594c-1.76-3.47-2.646-7.11-2.646-11.13c0-5.46,1.72-10.67,4.91-14.99
	c-1.13-3.02-1.71-6.26-1.71-9.52c0-15.1,12.28-27.39,27.38-27.39h13.05C144.84,15.94,160.34,2,179.03,2
	c15.31,0,28.92,9.46,34.42,23.45c13.19,0.17,23.87,10.96,23.87,24.19C237.32,60.42,230.15,69.7,220.23,72.76z M49.965,240.535
	l0.651-1.513c10.892-25.323,18.772-51.361,23.636-77.854H20.671C20.027,191.775,13.43,220.916,2,247.491V258h47.965V240.535z
	 M258,247.074c-11.323-26.462-17.856-55.458-18.494-85.906h-53.682c4.86,26.141,12.694,51.96,23.496,77.205L210,240v18h48V247.074z
	 M201.97,241.52L202,258H58v-16c18.15-42.2,28.98-88.39,30-137h84C173.01,153.36,183.98,199.49,201.97,241.52z M129.96,161.21
	c-6.157,0-11.928,1.637-16.917,4.486l10.506,18.196c1.901-1.064,4.087-1.677,6.416-1.677c2.326,0,4.51,0.611,6.41,1.673
	l10.51-18.192C141.894,162.846,136.12,161.21,129.96,161.21z M129.965,190.215c-2.859,0-5.185,2.326-5.185,5.186
	c0,2.858,2.326,5.185,5.185,5.185c2.859,0,5.186-2.326,5.186-5.185C135.15,192.541,132.824,190.215,129.965,190.215z
	 M112.869,225.004l10.508-18.201c-3.936-2.284-6.597-6.534-6.597-11.403c0-0.135,0.016-0.266,0.02-0.4H95.79
	c-0.002,0.134-0.01,0.266-0.01,0.4C95.78,208.051,102.655,219.091,112.869,225.004z M164.15,195.4c0-0.134-0.009-0.266-0.01-0.4
	h-21.01c0.004,0.134,0.02,0.265,0.02,0.4c0,4.871-2.663,9.124-6.603,11.407l10.511,18.197
	C157.275,219.091,164.15,208.051,164.15,195.4z"/>
</svg>